<!--?xml version="1.0" standalone="no"?-->
              <svg id="sw-js-blob-svg" viewBox="0 0 100 100" xmlns="http://www.w3.org/2000/svg" version="1.1">
                    <defs> 
                        <linearGradient id="sw-gradient" x1="0" x2="1" y1="1" y2="0">
                            <stop id="stop1" stop-color="rgba(248, 117, 55, 1)" offset="0%"></stop>
                            <stop id="stop2" stop-color="rgba(251, 168, 31, 1)" offset="100%"></stop>
                        </linearGradient>
                    </defs>
                <path fill="url(#sw-gradient)" d="M17.5,-30C23.9,-26.7,31.2,-24.4,35.9,-19.6C40.6,-14.8,42.7,-7.4,41.2,-0.9C39.8,5.7,34.7,11.4,31.2,18.3C27.7,25.2,25.8,33.3,20.8,38.6C15.9,43.9,8,46.4,0.2,46C-7.5,45.7,-15.1,42.4,-21.3,37.9C-27.6,33.3,-32.5,27.5,-35.8,20.9C-39.1,14.4,-40.9,7.2,-39.5,0.8C-38.2,-5.6,-33.7,-11.3,-29.7,-16.6C-25.6,-21.9,-22,-26.9,-17.2,-31.1C-12.3,-35.4,-6.1,-38.8,-0.3,-38.3C5.6,-37.8,11.1,-33.3,17.5,-30Z" width="100%" height="100%" transform="translate(50 50)" stroke-width="0" style="transition: 0.3s;" stroke="url(#sw-gradient)"></path>
              </svg>